<svg width="54" height="54" viewBox="0 0 54 54" fill="none" xmlns="http://www.w3.org/2000/svg">
<path d="M26.52 4.42C22.149 4.42 17.8762 5.71614 14.2419 8.14452C10.6076 10.5729 7.77497 14.0244 6.10227 18.0627C4.42957 22.1009 3.99192 26.5445 4.84465 30.8315C5.69739 35.1185 7.80221 39.0563 10.8929 42.1471C13.9837 45.2378 17.9215 47.3426 22.2085 48.1954C26.4955 49.0481 30.9391 48.6104 34.9773 46.9377C39.0156 45.265 42.4671 42.4324 44.8955 38.7981C47.3239 35.1638 48.62 30.891 48.62 26.52C48.62 23.6178 48.0484 20.744 46.9377 18.0627C45.8271 15.3814 44.1992 12.9451 42.1471 10.8929C40.0949 8.84076 37.6586 7.21289 34.9773 6.10226C32.296 4.99163 29.4222 4.42 26.52 4.42ZM26.52 44.2C23.0232 44.2 19.605 43.1631 16.6975 41.2204C13.7901 39.2777 11.524 36.5164 10.1858 33.2858C8.84766 30.0552 8.49754 26.5004 9.17973 23.0708C9.86191 19.6412 11.5458 16.4909 14.0184 14.0184C16.491 11.5458 19.6412 9.8619 23.0708 9.17972C26.5004 8.49753 30.0553 8.84765 33.2859 10.1858C36.5164 11.524 39.2777 13.7901 41.2204 16.6975C43.1631 19.605 44.2 23.0232 44.2 26.52C44.2 31.209 42.3373 35.706 39.0217 39.0216C35.706 42.3373 31.209 44.2 26.52 44.2Z" fill="#231F20"/>
<path d="M26.52 37.57C27.7406 37.57 28.73 36.5805 28.73 35.36C28.73 34.1394 27.7406 33.15 26.52 33.15C25.2995 33.15 24.31 34.1394 24.31 35.36C24.31 36.5805 25.2995 37.57 26.52 37.57Z" fill="#231F20"/>
<path d="M26.52 15.47C25.9339 15.47 25.3718 15.7028 24.9573 16.1173C24.5429 16.5318 24.31 17.0939 24.31 17.68V28.73C24.31 29.3161 24.5429 29.8783 24.9573 30.2927C25.3718 30.7072 25.9339 30.94 26.52 30.94C27.1061 30.94 27.6683 30.7072 28.0827 30.2927C28.4972 29.8783 28.73 29.3161 28.73 28.73V17.68C28.73 17.0939 28.4972 16.5318 28.0827 16.1173C27.6683 15.7028 27.1061 15.47 26.52 15.47Z" fill="#231F20"/>
</svg>
