<svg width="54" height="54" viewBox="0 0 54 54" fill="none" xmlns="http://www.w3.org/2000/svg">
<path d="M36.6938 14.3459L26.996 24.0437L17.2982 14.3459L14.7979 16.8462L24.4958 26.544L14.7979 36.2419L17.2982 38.7421L26.996 29.0444L36.6938 38.7421L39.1942 36.2419L29.4963 26.544L39.1942 16.8462L36.6938 14.3459Z" fill="black"/>
<path d="M45.2725 8.26753C40.299 3.29406 33.5535 0.5 26.52 0.5C19.4865 0.5 12.741 3.29406 7.76753 8.26753C2.79406 13.241 5.2404e-08 19.9865 0 27.02C-5.2404e-08 34.0535 2.79406 40.799 7.76753 45.7725C12.741 50.7459 19.4865 53.54 26.52 53.54C33.5535 53.54 40.299 50.7459 45.2725 45.7725C50.2459 40.799 53.04 34.0535 53.04 27.02C53.04 19.9865 50.2459 13.241 45.2725 8.26753ZM26.52 50.004C13.8467 50.004 3.53605 39.6933 3.53605 27.02C3.53605 14.3467 13.8467 4.03605 26.52 4.03605C39.1933 4.03605 49.504 14.3467 49.504 27.02C49.504 39.6933 39.1933 50.004 26.52 50.004Z" fill="black"/>
</svg>
