<svg width="59" height="59" viewBox="0 0 59 59" fill="none" xmlns="http://www.w3.org/2000/svg">
<path d="M3 3L56.04 56.04" stroke="black" stroke-width="5.304" stroke-linecap="round" stroke-linejoin="round"/>
<path d="M15.4983 15.5243C7.41502 21.0211 3 29.52 3 29.52C3 29.52 12.6436 48.084 29.52 48.084C34.9574 48.084 39.6437 46.1571 43.499 43.5448M26.868 11.1104C27.731 11.0094 28.6151 10.956 29.52 10.956C46.3963 10.956 56.04 29.52 56.04 29.52C56.04 29.52 54.2053 33.0517 50.736 37.0344" stroke="black" stroke-width="5.304" stroke-linecap="round" stroke-linejoin="round"/>
<path d="M34.824 35.4504C33.4163 36.7101 31.5578 37.4763 29.52 37.4763C25.1259 37.4763 21.564 33.9144 21.564 29.5203C21.564 27.3358 22.4443 25.3572 23.8694 23.9194" stroke="black" stroke-width="5.304" stroke-linecap="round" stroke-linejoin="round"/>
</svg>
